<?xml version="1.0" standalone="no"?>
<!DOCTYPE svg PUBLIC "-//W3C//DTD SVG 20010904//EN"
 "http://www.w3.org/TR/2001/REC-SVG-20010904/DTD/svg10.dtd">
<svg version="1.0" xmlns="http://www.w3.org/2000/svg"
 width="130.000000pt" height="130.000000pt" viewBox="0 0 130.000000 130.000000"
 preserveAspectRatio="xMidYMid meet">

<g transform="translate(0.000000,130.000000) scale(0.100000,-0.100000)"
fill="#000000" stroke="none">
<path d="M876 1278 c-13 -13 -118 -151 -232 -308 -113 -157 -208 -287 -211
-289 -2 -3 -41 32 -86 77 -45 45 -89 82 -97 82 -23 0 -160 -142 -160 -165 0
-12 37 -57 95 -115 l94 -94 -133 -136 c-139 -141 -155 -167 -141 -230 9 -39
56 -86 94 -93 67 -14 90 0 231 139 l136 133 94 -94 c57 -57 103 -95 115 -95
23 0 165 137 165 160 0 8 -37 52 -82 97 -45 45 -80 84 -77 86 2 3 123 91 269
197 146 106 284 208 308 227 l42 34 0 189 c0 158 -3 191 -16 204 -13 13 -45
16 -199 16 -177 0 -185 -1 -209 -22z m333 -215 l0 -148 -295 -214 c-245 -177
-297 -211 -309 -201 -8 7 -15 18 -15 24 0 6 102 112 225 235 124 123 225 231
225 240 0 21 -19 41 -39 41 -9 0 -117 -101 -241 -225 -124 -124 -230 -225
-236 -225 -6 0 -17 7 -24 15 -10 12 24 64 201 309 l214 295 148 0 147 1 -1
-147z m-501 -840 l-32 -33 -243 242 -243 242 32 33 32 33 243 -242 243 -242
-32 -33z m-333 147 l29 -31 -76 -76 -76 -76 -33 32 -32 32 74 75 c40 41 76 74
79 74 4 0 19 -14 35 -30z m-215 -214 c6 -8 10 -25 8 -38 -2 -19 -9 -23 -38
-23 -29 0 -36 4 -38 23 -2 13 -1 30 2 38 7 18 50 18 66 0z"/>
</g>
</svg>
